<svg width="273" height="31" viewBox="0 0 273 31" fill="none" xmlns="http://www.w3.org/2000/svg">
<path d="M19.8561 1.8V8.04H8.57609V13H16.8961V18.96H8.57609V30H0.736094V1.8H19.8561ZM34.198 1.8V30H26.358V1.8H34.198ZM67.9827 30H60.1427L49.7027 14.24V30H41.8627V1.8H49.7027L60.1427 17.76V1.8H67.9827V30ZM83.4886 8.08V12.68H92.4886V18.64H83.4886V23.72H93.6886V30H75.6486V1.8H93.6886V8.08H83.4886ZM106.083 11.24C106.856 10.1733 107.909 9.30667 109.243 8.64C110.603 7.94667 112.109 7.6 113.763 7.6C115.709 7.6 117.469 8.06667 119.043 9C120.616 9.93333 121.856 11.2667 122.763 13C123.669 14.7067 124.123 16.6667 124.123 18.88C124.123 21.0933 123.669 23.08 122.763 24.84C121.856 26.5733 120.603 27.9333 119.003 28.92C117.429 29.88 115.683 30.36 113.763 30.36C112.056 30.36 110.536 30.0267 109.203 29.36C107.896 28.6933 106.856 27.84 106.083 26.8V30H101.523V0.4H106.083V11.24ZM119.483 18.88C119.483 17.36 119.163 16.0533 118.523 14.96C117.909 13.84 117.083 13 116.043 12.44C115.029 11.8533 113.936 11.56 112.763 11.56C111.616 11.56 110.523 11.8533 109.483 12.44C108.469 13.0267 107.643 13.88 107.003 15C106.389 16.12 106.083 17.44 106.083 18.96C106.083 20.48 106.389 21.8133 107.003 22.96C107.643 24.08 108.469 24.9333 109.483 25.52C110.523 26.1067 111.616 26.4 112.763 26.4C113.936 26.4 115.029 26.1067 116.043 25.52C117.083 24.9067 117.909 24.0267 118.523 22.88C119.163 21.7333 119.483 20.4 119.483 18.88ZM130.312 18.88C130.312 16.6667 130.765 14.7067 131.672 13C132.605 11.2933 133.859 9.97333 135.432 9.04C137.032 8.08 138.792 7.6 140.712 7.6C142.445 7.6 143.952 7.94667 145.232 8.64C146.539 9.30667 147.579 10.1467 148.352 11.16V7.96H152.952V30H148.352V26.72C147.579 27.76 146.525 28.6267 145.192 29.32C143.859 30.0133 142.339 30.36 140.632 30.36C138.739 30.36 137.005 29.88 135.432 28.92C133.859 27.9333 132.605 26.5733 131.672 24.84C130.765 23.08 130.312 21.0933 130.312 18.88ZM148.352 18.96C148.352 17.44 148.032 16.12 147.392 15C146.779 13.88 145.965 13.0267 144.952 12.44C143.939 11.8533 142.845 11.56 141.672 11.56C140.499 11.56 139.405 11.8533 138.392 12.44C137.379 13 136.552 13.84 135.912 14.96C135.299 16.0533 134.992 17.36 134.992 18.88C134.992 20.4 135.299 21.7333 135.912 22.88C136.552 24.0267 137.379 24.9067 138.392 25.52C139.432 26.1067 140.525 26.4 141.672 26.4C142.845 26.4 143.939 26.1067 144.952 25.52C145.965 24.9333 146.779 24.08 147.392 22.96C148.032 21.8133 148.352 20.48 148.352 18.96ZM173.261 7.6C174.995 7.6 176.541 7.96 177.901 8.68C179.288 9.4 180.368 10.4667 181.141 11.88C181.915 13.2933 182.301 15 182.301 17V30H177.781V17.68C177.781 15.7067 177.288 14.2 176.301 13.16C175.315 12.0933 173.968 11.56 172.261 11.56C170.555 11.56 169.195 12.0933 168.181 13.16C167.195 14.2 166.701 15.7067 166.701 17.68V30H162.141V7.96H166.701V10.48C167.448 9.57333 168.395 8.86667 169.541 8.36C170.715 7.85333 171.955 7.6 173.261 7.6ZM200.038 19L210.198 30H204.038L195.878 20.52V30H191.318V0.4H195.878V17.6L203.878 7.96H210.198L200.038 19ZM218.506 30.28C217.68 30.28 216.986 30 216.426 29.44C215.866 28.88 215.586 28.1867 215.586 27.36C215.586 26.5333 215.866 25.84 216.426 25.28C216.986 24.72 217.68 24.44 218.506 24.44C219.306 24.44 219.986 24.72 220.546 25.28C221.106 25.84 221.386 26.5333 221.386 27.36C221.386 28.1867 221.106 28.88 220.546 29.44C219.986 30 219.306 30.28 218.506 30.28ZM236.595 1.8V30H228.755V1.8H236.595ZM257.78 30.28C255.14 30.28 252.713 29.6667 250.5 28.44C248.286 27.1867 246.526 25.4667 245.22 23.28C243.94 21.0667 243.3 18.5733 243.3 15.8C243.3 13.0267 243.94 10.5467 245.22 8.36C246.526 6.14667 248.286 4.42667 250.5 3.2C252.713 1.97333 255.14 1.36 257.78 1.36C260.446 1.36 262.873 1.97333 265.06 3.2C267.273 4.42667 269.02 6.14667 270.3 8.36C271.58 10.5467 272.22 13.0267 272.22 15.8C272.22 18.5733 271.58 21.0667 270.3 23.28C269.02 25.4667 267.273 27.1867 265.06 28.44C262.846 29.6667 260.42 30.28 257.78 30.28ZM257.78 23C259.78 23 261.353 22.3467 262.5 21.04C263.673 19.7333 264.26 17.9867 264.26 15.8C264.26 13.56 263.673 11.8 262.5 10.52C261.353 9.21333 259.78 8.56 257.78 8.56C255.753 8.56 254.166 9.21333 253.02 10.52C251.873 11.8 251.3 13.56 251.3 15.8C251.3 18.0133 251.873 19.7733 253.02 21.08C254.166 22.36 255.753 23 257.78 23Z" fill="#4F84EA"/>
</svg>
